<svg xmlns="http://www.w3.org/2000/svg" width="250" height="186" viewBox="0 0 250 186"><g fill="none"><path fill="#CCD3D7" d="M213.632 18.322c-3.71-1.25-28.218-8.427-51.316 7.895-32.592 23.026-7.796 6.803-53.862 24.75S68.908 94.763 68.908 94.763s0 18.04 33.895 17.171c9.71 0 1.164 16.803 1.013 17.527-.152.723-8.112 29.118 17.243 31.289 25.355 2.171 29.691-4.75 34.908-13.303 5.217-8.552 17.665-6.658 20.928-6.658 3.263 0 36.723-1.02 40.927-35.203 1.158-8.112 8.257-8.836 10.862-14.198 2.605-5.362 1.316-11.52 2.908-14.013 2.184-3.355 10.421-5.829 12.882-9.868 2.46-4.04-2.632-39.704-30.842-49.185z"/><path fill="#F0F4F8" d="M178.763 88.06c-22.368 28.947-23.684 33.552-57.237 71.71-5.355 26.506-41.401 12.71-54.408 8.283-11.743-3.994-36.605-24.31-17.256-52.152 5.335-8.112-.948-12.112-1.632-12.388-.335-.131-5.572-4.802-11.993-8.875-6.83-4.335-23.533-11.006-19.428-16.73 15.494-20.178 35.665-45.566 42.027-53.29 4.131-5.013 6.657-17.986 13.157-16.164 15.408-11.645 30.533 9.434 50.23 19.178 7.415 3.486 27.218-6.408 43.79 4.69 10.046 6.704 37.158 24.158 12.75 55.737z"/><path fill="#DDE3E9" d="M15.059 76.678l111.171 82.927-2.48 3.25L12.579 79.921zM75.941 12.862L63.645 3.474 66.408 0l12.316 9.401z"/><path fill="#DDE3E9" d="M69.317 4.138l3.06 2.363-58.227 75.41-3.061-2.364zM102.333 27.587l12.296 9.392-2.447 3.205-12.297-9.391z"/><path fill="#DDE3E9" d="M107.193 31.282l3.08 2.352-57.937 75.86-3.08-2.351zM138.696 53.935l12.298 9.392-2.448 3.205-12.298-9.392z"/><path fill="#DDE3E9" d="M141.704 57.662l3.06 2.363-58.227 75.408-3.06-2.363zM174.696 81.168l12.296 9.392-2.447 3.204-12.297-9.391z"/><path fill="#DDE3E9" d="M179.473 84.86l3.08 2.352-57.937 75.86-3.08-2.351z"/><path fill="#9CCB88" d="M222.579 121.053c-3.526 8.684-10.178 5.677-10.178 5.677s4.474 6.171-1.79 10.158c-8.677 5.52-10.394-1.638-10.73-4.895-.657 4.139-2.368 9.514-6.967 8.152-5.881-2.369-3.118-6.671-3.118-6.671s-2.704 2.908-4.928-.658c-3.592-5.744 7.296-6.132 3.987-6.277-3.309-.144-4.256-4.493-2.631-6.98 1.493-2.243 4.947-.77 8.44.171-3.072-2.296-5.861-4.079-2.342-10.316 2.204-3.907 4.921-4.559 8.125-3.138-.533-2.631.948-5.618 5.224-7.112 6.618-2.309 10.428 3.02 9.138 4.527 3.56-.105 13.184 3.993 7.77 17.362z"/><path fill="#20B477" d="M151.125 152.283c-2.493 5.835-14.888 8.842-17.007 8.868-12.736.165-14.513-1.513-25.486-14.605l-.033.243a3.48 3.48 0 0 0-1.08-.322c-1.5-.178-3.23.783-4.216 1.836-1.974 2.098-3.375 7.526-1.533 10.177-2.132 4.323-2.75 9.869 1.026 13.507 2.816 2.724 6.842 3.395 9.454.164-2.237 3.606.592 11.678 4.704 13.092 5.546 1.915 6.776-4.763 7.204-4.605 5.776 5.46 13.763-2.81 8.513-8.342 1.79 2.158 5.658-.368 6.579-3.395 6.816 6.402 18.112 8.138 19.158-5.756 1.724 1.973 4.862 6.776 8.085 5.092 2.882-1.5 1.777-6.823.71-9.21 3.33 5.414 5.89-1.02 3.665-4.81.856-.263 2.507-1.184 2.71-2.56.455-3.065-1.973-2.933-3.946-3.519 3.092.355 6.69-.783 2.493-7.552 4.993 3.578 8.487 4.4 8.316-1.724.592 4.184.658 9.388 6.888 9.631 2.724.112 4.171-2.052 4.533-4.506 1.572 1.256 6.099 1.368 7.566.125 2.079-1.77 3.144-4.066 2.105-7.52 1.974.474 5.105-3.105 5.92-5.553.915-2.703-.466-6.473-1.848-9.072 2.744-12.026-8.796-14.474-16.112-15.566-10.782-1.605-19.664 7.237-23.177 11.632-2.33 2.868-14.355 32.296-15.191 34.25z"/><circle cx="239.125" cy="39.954" r="9.993" fill="#ADB3B7" opacity=".72"/><circle cx="238.033" cy="38.862" r="8.908" fill="#FFC32E"/><circle cx="238.224" cy="35.579" r="4.329" fill="#FDE49C" opacity=".72"/><circle cx="239.796" cy="67.664" r="9.993" fill="#ADB3B7" opacity=".72"/><circle cx="238.704" cy="66.572" r="8.908" fill="#FFC32E"/><circle cx="238.895" cy="63.289" r="4.329" fill="#FDE49C"/><circle cx="227.842" cy="94.862" r="9.993" fill="#ADB3B7" opacity=".72"/><circle cx="226.75" cy="93.776" r="8.908" fill="#FFCC4E"/><circle cx="226.947" cy="90.493" r="4.329" fill="#FDE49C"/><path fill="#ADB3B7" d="M149 67.125c1.316 1.645 2.105.908 3.125-.487 7.237-9.835 23.362-30.625 26.007-33.48 1.263-1.362 2.631-1.125 3.993-.099 6.97 5.206 13.94 10.404 20.914 15.592 1.685 1.25 1.928 2.494.724 4.369-8.276 12.875-14.145 20.217-23.256 32.493-.58.776-1.1 1.612-1.718 2.362-.618.75-.657 1.27.316 1.684.388.165.948.296.58.921a.901.901 0 0 1-1.185.362c-1.599-.724-2.237.395-2.993 1.44-4.737 6.58-10.237 12.5-15.58 18.586-1.368 1.553-2.96 1.73-4.822.718a89.474 89.474 0 0 1-19.552-14.619c-1.27-1.23-1.467-2.572-.816-4.27 1.349-3.467 3.566-6.394 5.572-9.454 2.507-3.815 5.165-7.54 7.83-11.256.795-1.105 1.387-2.086.486-3.401-.237-.35-.237-.869.375-1.461z" opacity=".64"/><path fill="#ADB3B7" d="M182.697 64.987c1.158 1.256 1.092 2.296.073 3.585-2.408 3.033-4.665 6.191-7.02 9.342-.355-3.072 3.138-9.592 6.947-12.927zm2.96-.52c-1.4-1.125-1.414-2.013-.453-3.164 1.467-1.777 2.743-3.704 4.178-5.5.348-.435.52-1.717 1.52-.856a1.507 1.507 0 0 1 .164 2.316c-1.842 2.33-3.573 4.744-5.408 7.204zm9.672-13.52c-.921 1.507-1.77 2.882-2.632 4.283-1.96-1.914-1.276-3.04 2.632-4.283zm-38.21 50.612c-2.487.56-3.52-1.145-5.362-2.19 2.375-.185 3.684.986 5.361 2.19z"/><path fill="#FFD47A" d="M150.322 62.612c1.23 1.592 1.974.901 2.994-.415 7.085-9.263 22.842-28.822 25.414-31.5 1.23-1.283 2.52-1.026 3.816 0a8396.93 8396.93 0 0 0 19.684 15.25c1.592 1.224 1.803 2.421.619 4.185-8.132 12.144-13.856 19.079-22.77 30.611-.572.737-1.079 1.52-1.684 2.224-.606.704-.658 1.197.27 1.612.368.164.9.303.539.895a.855.855 0 0 1-1.138.315c-1.513-.71-2.013.448-2.882 1.316-9.592 9.724-10.645 11.099-15.848 16.803-1.316 1.454-2.856 1.592-4.606.599a72.586 72.586 0 0 1-17.105-12.96c-1.19-1.205-1.355-2.488-.697-4.093 1.315-3.29 3.513-6.046 5.48-8.928 2.46-3.605 2.474-3.987 7.026-11.276.658-1.105 1.362-1.974.52-3.243-.25-.35-.25-.843.368-1.395z"/><path fill="#F5BA2E" d="M191.086 37.296c3.71 2.882 7.425 5.757 11.144 8.625 1.592 1.224 1.803 2.421.619 4.184-8.132 12.145-13.856 19.08-22.77 30.612-.572.737-1.079 1.52-1.684 2.224-.606.704-.658 1.197.27 1.612.368.164.9.302.539.894a.855.855 0 0 1-1.138.316c-1.513-.71-2.046.428-2.882 1.316-10.737 11.56-10.645 11.099-15.848 16.803-1.316 1.454-2.856 1.592-4.606.598a66.487 66.487 0 0 1-8.967-5.79c4.704-5.052 38.934-51.756 45.323-61.394z"/><path fill="#FFF" d="M168.651 85.053l-7.763-4.336a10.474 10.474 0 0 1-2.368-1.822l-5.724-5.882c-1.132-.855-1.046-2.737.171-3.947l3.454-3.415a2.46 2.46 0 0 1 3.151-.44l14.764 11.184c.91.811 1.084 2.17.407 3.184l-2.355 4.25c-.816 1.493-2.612 2.085-3.737 1.224z"/><path fill="#F0F3F5" d="M186.224 46.44c-2.263-1.756-4.487-3.565-6.81-5.262-.973-.704.158-3.632 1.316-5.685.533-.947 1.191-.855 1.974-.657a16.099 16.099 0 0 1 4.842 2.21c3.783 2.467 7.355 5.184 10.184 8.783 1.138 1.454 1.388 2.632-.131 3.947-1.52 1.316-3.875 2.5-4.935 1.625-2.105-1.677-4.289-3.296-6.44-4.96zm-22.158 7.889c-1.83 4.803-5.198 8.06-9.665 10.23 3.086-3.546 4.948-8.276 9.665-10.23z"/><path fill="#DFE5EB" d="M183.638 69.349c1.073 1.217.994 2.21 0 3.42-2.355 2.856-4.566 5.836-6.862 8.797-.29-2.934 3.191-9.119 6.862-12.217z"/><path fill="#F0F3F5" d="M164.375 51.934c1.842-2.375 3.671-4.658 5.401-7.006a1.349 1.349 0 0 1 2.171-.316c.81.658-.17 1.112-.48 1.526-1.316 1.79-2.763 3.467-4.02 5.263-.809 1.198-1.644 1.441-3.072.533z"/><path fill="#DFE5EB" d="M186.474 68.901c-1.316-1.092-1.316-1.94-.382-3.026 1.428-1.664 2.678-3.487 4.086-5.178.335-.408.526-1.631 1.467-.79a1.44 1.44 0 0 1 .112 2.218c-1.796 2.19-3.494 4.46-5.283 6.776zm9.467-12.737c-.908 1.428-1.744 2.724-2.586 4.047-1.842-1.862-1.164-2.895 2.586-4.047z"/><path fill="#F0F3F5" d="M174.046 39.493c.368 1.408-.243 2.507-.56 3.678-.289 1.066-.933.553-1.453.401-.83-.25-.625-.723-.197-1.243.756-.934 1.473-1.888 2.21-2.836z"/><path fill="#FFF" d="M158.158 102.914a4.546 4.546 0 0 1-4.21-1.184 1 1 0 0 1 1.02-1.651c2.216.743 4.039 2.421 3.19 2.835zm-20.086-14.828a4.954 4.954 0 0 0 2.421 3.703.961.961 0 0 0 1.316-1.4c-1.48-1.902-3.612-3.205-3.737-2.303z"/><path fill="#6FC076" d="M112.901 141.007c8.895-2.96 10.928 4.046 10.928 4.046s1.79-7.415 8.888-5.264c9.83 3.014 5.507 8.968 3.25 11.336 3.553-2.204 8.77-4.382 10.724 0 2.026 6.013-3.04 6.704-3.04 6.704s3.948.164 2.71 4.164c-2.025 6.46-9.4-1.559-7.361 1.046 2.04 2.606-.658 6.165-3.605 6.52-2.678.33-3.803-3.256-5.362-6.52.256 3.83.717 7.106-6.316 8.48-4.401.87-6.664-.776-7.664-4.13-1.671 2.124-4.889 2.933-8.796.657-6.06-3.533-4.487-9.868-2.5-9.868-2.389-2.619-5.54-12.606 8.144-17.171z"/><circle cx="90.368" cy="92.888" r="17.046" fill="#DDE3E9"/><path fill="#FFF" d="M98.217 85.355H81.829v16.388l8.191-5.46 8.197 5.46V85.355"/><circle cx="54.013" cy="65.743" r="17.046" fill="#DDE3E9"/><path fill="#FFF" d="M61.855 58.204H45.467v16.388l8.197-5.46 8.191 5.46V58.204"/><circle cx="127.763" cy="118.98" r="17.046" fill="#FFEBC8"/><path fill="#F5BA2E" d="M135.605 111.447h-16.388v16.382l8.197-5.461 8.191 5.461v-16.382"/><path fill="#9CCB88" d="M6.145 73.586S-4.835 67.006 3.69 62.4c5.967-3.21 6.69 6.638 8.223 3.704 1.533-2.934 5.79-4.362 8.316-1.631.658.658 4.04 4.54 1.71 7.302 1.317.046 3.823 3.435 4.428 4.77.606 1.336 1.625 6.428-1.006 8.69 2.631.659 4.684 3.244 4.217 7.75-.724 6.975-13.974 8.192-14.072-.92-.777 1.802-10.454 4.098-14.698-6.099-3.434-8.204 5.336-12.381 5.336-12.381z"/></g></svg>